<svg id="_x33_0" enable-background="new 0 0 64 64" height="512" viewBox="0 0 64 64" width="512" xmlns="http://www.w3.org/2000/svg"><g><path d="m31 22h2v4h-2z"/><path d="m39.555 23.168-1.752-1.168 1.752-1.168-1.11-1.664-4.248 2.832 4.248 2.832z"/><path d="m25.555 24.832 4.248-2.832-4.248-2.832-1.11 1.664 1.752 1.168-1.752 1.168z"/><path d="m54 31h-.879c-2.698 0-5.039 1.776-5.832 4.272-.01-.002-.02-.005-.03-.007l-6.488-1.145c-.124-.339-.273-.665-.433-.983 1.587-1.77 2.688-3.867 3.24-6.137h.422c2.206 0 4-1.794 4-4 0-.027-.007-.052-.008-.079 3.391-.488 6.008-3.424 6.008-6.971 0-.192.072-.365.207-.5 1.156-1.156 1.793-2.693 1.793-4.329 0-3.375-2.746-6.121-6.121-6.121h-.879c-1.542 0-3.023.409-4.354 1.15-2.636-3.144-6.588-5.15-11.002-5.15h-3.288c-3.563 0-6.82 1.313-9.333 3.47-1.237-2.115-3.498-3.47-6.023-3.47-3.86 0-7 3.163-7 7.05 0 .192-.072.365-.207.5-1.156 1.156-1.793 2.693-1.793 4.329 0 3.375 2.746 6.121 6.121 6.121h.879c1.149 0 2.28-.23 3.337-.654.035.163.051.33.091.492l.429 1.717c-.528.678-.857 1.52-.857 2.445 0 2.206 1.794 4 4 4h.422c.552 2.27 1.653 4.367 3.24 6.137-.16.318-.309.644-.433.983l-6.274 1.107c-.386-3.497-3.356-6.227-6.955-6.227-3.86 0-7 3.163-7 7.05 0 .192-.072.365-.207.5-1.156 1.156-1.793 2.693-1.793 4.329 0 3.01 2.186 5.513 5.052 6.021-.034.385-.052.775-.052 1.168v7.568c0 4.061 3.303 7.364 7.364 7.364h44.636v-14.296c2.941-.871 5-3.563 5-6.704v-2c0-4.962-4.038-9-9-9zm-19.664 14.078.646 5.813-.024.072c-.406 1.218-1.542 2.037-2.828 2.037-.999 0-1.926-.496-2.48-1.328-.254-.381-.583-.697-.949-.959zm2.368 3.197-.557-5.008.525-.525c.856-.856 1.328-1.995 1.328-3.206 0-2.501-2.035-4.536-4.536-4.536-1.211 0-2.351.472-3.207 1.329l-.671.671h-.172c-1.179 0-2.288.459-3.121 1.293-.834.833-1.293 1.942-1.293 3.121v.172l-1.464 1.464 1.232-6.982c.621-3.516 3.662-6.068 7.232-6.068s6.611 2.552 7.231 6.067l1.756 9.947c.009.049.013.098.013.147 0 .463-.376.839-.839.839-1.302 0-2.51.478-3.457 1.275zm7.296-23.275h-.068c.045-.464.068-.932.068-1.403v-2.597c1.103 0 2 .897 2 2s-.897 2-2 2zm3.443-13.56c.466-.285 1.002-.44 1.557-.44h.879c.065 0 .121.056.086.207-1.267 1.267-1.965 2.951-1.965 4.743 0 .085-.032.158-.051.236.016-.277.051-.553.051-.83 0-1.359-.202-2.669-.557-3.916zm1.557-4.44h.879c2.272 0 4.121 1.849 4.121 4.121 0 1.101-.429 2.136-1.208 2.915-.511.511-.792 1.191-.792 1.914 0 2.639-2.022 4.788-4.58 5.007-.084-.141-.177-.274-.278-.403l.403-1.611c1.394-.261 2.455-1.501 2.455-2.993 0-1.257.49-2.439 1.38-3.33.4-.4.62-.933.62-1.499 0-1.169-.952-2.121-2.121-2.121h-.879c-.788 0-1.546.204-2.236.552-.274-.617-.595-1.208-.95-1.776.982-.505 2.065-.776 3.186-.776zm-36 10h-.879c-2.272 0-4.121-1.849-4.121-4.121 0-1.101.429-2.136 1.208-2.915.511-.511.792-1.191.792-1.914 0-2.784 2.243-5.05 5-5.05 1.983 0 3.739 1.167 4.543 2.943-.578.663-1.093 1.379-1.543 2.14v-.083c0-1.654-1.346-3-3-3s-3 1.368-3 3.05c0 1.257-.49 2.439-1.38 3.33-.4.4-.62.933-.62 1.499 0 1.169.952 2.121 2.121 2.121h.879c1.164 0 2.222-.416 3.073-1.086-.047.474-.073.955-.073 1.442 0 .309.037.616.057.924-.95.464-1.992.72-3.057.72zm3-9v2c0 1.654-1.346 3-3 3h-.879c-.065 0-.121-.056-.086-.207 1.267-1.267 1.965-2.951 1.965-4.743 0-.589.439-1.05 1-1.05.551 0 1 .449 1 1zm4 17c-1.103 0-2-.897-2-2s.897-2 2-2v2.597c0 .472.023.94.068 1.403zm.162-6h-.162c-.495 0-.964.102-1.402.267l-.229-.915c-.245-.978-.369-1.986-.369-2.996 0-6.813 5.543-12.356 12.356-12.356h3.288c6.813 0 12.356 5.543 12.356 12.356 0 1.01-.124 2.018-.369 2.997l-.229.915c-.438-.166-.907-.268-1.402-.268h-.274c-.411-1.365-1.274-2.567-2.494-3.38-.536-.357-1.122-.628-1.74-.805l-4.736-1.353c.144-.466.244-.95.244-1.462v-5h-2v5c0 1.654-1.346 3-3 3h-4.697c-1.05 0-2.067.308-2.941.891-1.109.739-1.882 1.85-2.2 3.109zm1.838 4.597v-3.294c0-1.107.55-2.134 1.471-2.748.544-.363 1.178-.555 1.832-.555h4.697c1.507 0 2.844-.684 3.762-1.742l5.181 1.48c.419.12.816.303 1.18.546 1.175.783 1.877 2.094 1.877 3.508v2.805c0 2.88-.983 5.61-2.788 7.807-1.726-2.096-4.332-3.404-7.212-3.404s-5.486 1.308-7.212 3.403c-1.805-2.196-2.788-4.926-2.788-7.806zm.706 12.647-1.636 9.272-5.07 5.07v-3.586h-2v4h-6v-2.932c0-5.348 3.822-9.903 9.088-10.833zm-14.706 4.756h-.879c-.065 0-.121-.056-.086-.207 1.267-1.267 1.965-2.951 1.965-4.743 0-.589.439-1.05 1-1.05.551 0 1 .449 1 1v1.829c-1.137.888-2.115 1.956-2.898 3.162-.034.002-.067.009-.102.009zm-5-.121c0-1.101.429-2.136 1.208-2.915.511-.511.792-1.191.792-1.914 0-2.784 2.243-5.05 5-5.05 2.661 0 4.823 2.095 4.972 4.719-.686.223-1.344.499-1.972.825v-.544c0-1.654-1.346-3-3-3s-3 1.368-3 3.05c0 1.257-.49 2.439-1.38 3.33-.4.4-.62.933-.62 1.499 0 1.141.909 2.069 2.04 2.113-.264.623-.482 1.268-.648 1.935-1.925-.347-3.392-2.025-3.392-4.048zm5 14.757v-2.636h5.586l-2.293 2.293 1.414 1.414 14.293-14.293v-1c0-.635.258-1.258.707-1.707s1.072-.707 1.707-.707h1l1.257-1.257c.479-.479 1.116-.743 1.793-.743 1.398 0 2.536 1.138 2.536 2.536 0 .677-.264 1.314-.743 1.793l-18.1 18.1c-1.013 1.013-2.36 1.571-3.793 1.571-2.958 0-5.364-2.406-5.364-5.364zm10.571 5.207 8.678-8.678c.295.135.554.343.737.617.926 1.389 2.475 2.218 4.144 2.218 2.148 0 4.047-1.369 4.725-3.405l.094-.28c.462-1.385 1.752-2.315 3.212-2.315 1.566 0 2.839-1.273 2.839-2.839 0-.166-.014-.331-.043-.494l-1.663-9.424 5.618.991c5.266.931 9.088 5.486 9.088 10.834v2.932h-6v-4h-2v14h-29.602c.057-.053.117-.101.173-.157zm38.429-18.843c0 .221-.082.423-.208.591-.625-1.348-1.476-2.573-2.509-3.626-.322-.646-.734-1.249-1.283-1.844 0-.065.056-.121.121-.121h.879c1.654 0 3 1.346 3 3zm-7 19v-8h6v8zm11-19c0 2.066-1.253 3.851-3.091 4.608-.078-.694-.203-1.375-.386-2.034.886-.528 1.477-1.493 1.477-2.574v-2c0-2.757-2.243-5-5-5h-.879c-.983 0-1.805.676-2.044 1.585-.59-.312-1.206-.581-1.849-.802.562-1.631 2.11-2.783 3.893-2.783h.879c3.86 0 7 3.14 7 7z"/><path d="m57 23c0-1.103.897-2 2-2s2 .897 2 2-.897 2-2 2v2c2.206 0 4-1.794 4-4s-1.794-4-4-4-4 1.794-4 4z"/><path d="m4 25c1.654 0 3-1.346 3-3s-1.346-3-3-3-3 1.346-3 3 1.346 3 3 3zm0-4c.551 0 1 .449 1 1s-.449 1-1 1-1-.449-1-1 .449-1 1-1z"/></g></svg>