<svg height="512" viewBox="0 0 512 512" width="512" xmlns="http://www.w3.org/2000/svg"><g id="outline"><path d="m208 197.252a8 8 0 0 0 2.529-15.592l-8.482-2.827 10.39-6.927a8 8 0 0 0 -8.876-13.312l-24 16a8 8 0 0 0 1.908 14.246l24 8a8.015 8.015 0 0 0 2.531.412z"/><path d="m80 464h376a8 8 0 0 0 8-8v-83.358a68 68 0 0 0 -48.46-65.133l-36.452-10.935-59.737-32.436-7.078-49.546 5.317-10.632a175.274 175.274 0 0 0 18.41-77.987 77.863 77.863 0 0 0 -86.462-77.387l-39.6 4.4a86.579 86.579 0 0 0 -99.98 6.056l-5.345 4.274a86.475 86.475 0 0 0 -32.613 67.853v26.081a8 8 0 0 0 8.992 7.938l50.06-6.257 4.593 16.838-15.235 45.7a8 8 0 0 0 8.5 10.478l15.09-1.728v15.031a8 8 0 0 0 11.314 7.281l12.972-5.905a7.59 7.59 0 0 1 8.143 12.62l-13.7 11.983a8 8 0 0 0 -.617 11.44l19.295 21.424-24.855 16.588-36.1 10.829c-31.695 9.511-48.452 29.267-48.452 57.132v67.358a8 8 0 0 0 8 8zm8-48h64v32h-64zm360 31.687h-64v-31.687h64zm-360-316.518a70.551 70.551 0 0 1 26.606-55.359l5.345-4.275a70.647 70.647 0 0 1 83.611-3.629 8.025 8.025 0 0 0 5.322 1.295l42.422-4.713a61.862 61.862 0 0 1 68.694 61.485 159.228 159.228 0 0 1 -9.432 53.8 32.057 32.057 0 0 0 -30.568-22.523h-8a8 8 0 0 0 -8 8v4.687l-16-16v-12.687a8 8 0 0 0 -1.854-5.121l-40-48a8 8 0 0 0 -13.991 3.552 62.43 62.43 0 0 1 -41.384 46.879l-8.549 2.849-54.222 6.779zm92.548 145.731 6.417-5.614a23.59 23.59 0 0 0 -25.309-39.223l-1.656.754v-11.567a8 8 0 0 0 -8.911-7.948l-11.53 1.321 12.031-36.093a8 8 0 0 0 .128-4.635l-4.7-17.219 8.81-2.936a78.5 78.5 0 0 0 47.455-44.05l28.717 34.456v13.1a8 8 0 0 0 2.343 5.657l32 32a8 8 0 0 0 13.657-5.653v-16a16 16 0 0 1 10.665 27.928 7.771 7.771 0 0 0 -.6.6l-.778.862a7.995 7.995 0 0 0 7.017 13.281l7.78 54.461a8 8 0 0 0 4.1 5.9l22.546 12.242-74.192 60.7-46.924-46.924 55.528-35.225a31.844 31.844 0 0 0 14.858-27.021 8 8 0 1 0 -16 0 15.922 15.922 0 0 1 -7.429 13.51l-61.571 39.436zm-55.49 69.934 37.206-11.162c.018 0 35.1-22.993 35.1-22.993l52.977 52.977a8 8 0 0 0 10.722.534l84.851-69.423 26.249 14.253c.277.151 38.777 11.813 38.777 11.813a51.682 51.682 0 0 1 37.06 49.809v27.358h-72a8 8 0 0 0 -8 8v40h-200v-40a8 8 0 0 0 -8-8h-72v-11.358c0-20.651 12.122-34.327 37.058-41.807z"/><path d="m53.694 272.643a8 8 0 0 0 7.979 7.534c.157 0 .315 0 .473-.014l23.959-1.4a8 8 0 1 0 -.931-15.973l-23.959 1.4a8 8 0 0 0 -7.521 8.453z"/><path d="m71.075 311.92a7.958 7.958 0 0 0 3.9-1.021l15.982-8.944a8 8 0 0 0 -7.814-13.962l-15.983 8.945a8 8 0 0 0 3.914 14.982z"/><path d="m64.662 247.352 16.438 7.054a8 8 0 0 0 6.31-14.7l-16.438-7.055a8 8 0 0 0 -6.311 14.7z"/><path d="m112 264h16v16h-16z"/><path d="m136 288h16v16h-16z"/><path d="m104 304h16v16h-16z"/></g></svg>