<?xml version="1.0"?>
<svg xmlns="http://www.w3.org/2000/svg" viewBox="0 0 512 512" width="512" height="512"><g id="outline"><path d="M58.183,61.492A8,8,0,1,0,69.817,50.508l-15.1-16A8,8,0,0,0,43.078,45.492Z"/><path d="M144,64a7.977,7.977,0,0,0,5.818-2.508l15.1-16a8,8,0,0,0-11.635-10.984l-15.1,16A8,8,0,0,0,144,64Z"/><path d="M104,48a8,8,0,0,0,8-8V24a8,8,0,0,0-16,0V40A8,8,0,0,0,104,48Z"/><path d="M357.761,320H345.387A116.377,116.377,0,0,0,368,250.745V168a96,96,0,0,0-192,0V320a8.212,8.212,0,0,0,.074,1.035A50.325,50.325,0,0,0,136,370.239V470a26.029,26.029,0,0,0,26,26H382a26.029,26.029,0,0,0,26-26V370.239A50.3,50.3,0,0,0,357.761,320ZM352,250.745a100.525,100.525,0,0,1-26.569,68.366l-3.251-.813a23.948,23.948,0,0,1-18.12-21.857A72.068,72.068,0,0,0,344,232v-.29a27.786,27.786,0,0,0,8-2.417Zm-96.64,51.293a71.544,71.544,0,0,0,33.28,0,39.919,39.919,0,0,0,21.591,28.823L272,358.169l-38.231-27.308A39.921,39.921,0,0,0,255.36,302.038ZM216,232V182.335a100.492,100.492,0,0,0,56-39.273,100.492,100.492,0,0,0,56,39.273V232a56,56,0,0,1-112,0Zm128-16.686V192.686a12,12,0,0,1,0,22.628ZM192,168a80,80,0,0,1,160,0v10.707a27.786,27.786,0,0,0-8-2.417V176a8,8,0,0,0-6.431-7.845,84.381,84.381,0,0,1-55.7-39.25l-3.013-5.021a8,8,0,0,0-13.72,0l-3.013,5.021a84.381,84.381,0,0,1-55.7,39.25A8,8,0,0,0,200,176v56a72.068,72.068,0,0,0,39.94,64.441A23.948,23.948,0,0,1,221.82,318.3l-6.805,1.7H192ZM152,408h26.029a52.835,52.835,0,0,0,.286,24H152Zm209.5,70.329A1.994,1.994,0,0,1,359.528,480H162a10.011,10.011,0,0,1-10-10V448H312a8,8,0,0,0,5.657-2.343L331.313,432h15.743l5.789,11.578A8,8,0,0,0,360,448h6.557ZM392,470a10.011,10.011,0,0,1-10,10h-4.556l6.448-38.685A8,8,0,0,0,376,432H365.691a52.77,52.77,0,0,0,.284-24H392Zm0-78H359.578l-12.069-20.116a8,8,0,0,0-13.721,8.232l12.238,20.4A36.671,36.671,0,0,1,351.073,416H328a8,8,0,0,0-5.657,2.343L308.687,432H195.008a36.729,36.729,0,0,1,2.967-31.488l12.237-20.4a8,8,0,0,0-13.721-8.232L184.422,392H152V370.239A34.278,34.278,0,0,1,186.239,336h27.2l53.914,38.51a8,8,0,0,0,9.3,0L330.563,336h27.2A34.278,34.278,0,0,1,392,370.239Z"/><path d="M256.41,229.47A8,8,0,0,0,264,240h8a8,8,0,0,0,2.917-15.452l4.673-14.018a8,8,0,0,0-15.18-5.06Z"/><path d="M292.154,197.742a12,12,0,1,0,20.263,3.962h.7a8,8,0,0,0,0-16h-4.686a19.187,19.187,0,0,1-13.657-5.657,8,8,0,0,0-11.314,11.314A35.389,35.389,0,0,0,292.154,197.742Z"/><path d="M257.114,205.7a11.94,11.94,0,0,0-3.039-7.962,35.366,35.366,0,0,0,8.7-6.381,8,8,0,1,0-11.314-11.314A19.183,19.183,0,0,1,237.8,185.7h-4.687a8,8,0,1,0,0,16h.7a12,12,0,1,0,23.3,4Z"/><path d="M284.422,263.155a8,8,0,1,0,7.156-14.31,43.984,43.984,0,0,0-39.156,0,8,8,0,0,0,7.156,14.31A27.917,27.917,0,0,1,284.422,263.155Z"/><path d="M136,232.01V100a32,32,0,0,0-64,0V232.01a40,40,0,1,0,64,0ZM104,280a23.992,23.992,0,0,1-18-39.862,8,8,0,0,0,2-5.293V184h16V168H88V152h16V136H88V120h16V104H88v-4a16,16,0,0,1,32,0V234.845a8,8,0,0,0,2,5.293A23.992,23.992,0,0,1,104,280Z"/><path d="M112,242.158V216a8,8,0,0,0-16,0v26.158a16,16,0,1,0,16,0Z"/><path d="M64,88a8,8,0,0,0-8-8H32a8,8,0,0,0,0,16H56A8,8,0,0,0,64,88Z"/><path d="M144,88a8,8,0,0,0,8,8h24a8,8,0,0,0,0-16H152A8,8,0,0,0,144,88Z"/><path d="M446.656,303.562l-8-12a8,8,0,1,0-13.312,8.876l8,12a13.6,13.6,0,0,1,0,15.124,29.556,29.556,0,0,0,0,32.876,13.6,13.6,0,0,1,0,15.124l-8,12a8,8,0,1,0,13.312,8.876l8-12a29.556,29.556,0,0,0,0-32.876,13.6,13.6,0,0,1,0-15.124A29.556,29.556,0,0,0,446.656,303.562Z"/><path d="M483.022,384.438a29.553,29.553,0,0,0,0-32.876l-8-12a8,8,0,0,0-13.312,8.876l8,12a13.6,13.6,0,0,1,0,15.125,29.558,29.558,0,0,0,0,32.875,13.6,13.6,0,0,1,0,15.124l-8,12a8,8,0,1,0,13.312,8.876l8-12a29.551,29.551,0,0,0,0-32.875A13.6,13.6,0,0,1,483.022,384.438Z"/><path d="M110.656,348.438a8,8,0,1,0-13.312-8.876l-8,12a29.556,29.556,0,0,0,0,32.876,13.6,13.6,0,0,1,0,15.124,29.556,29.556,0,0,0,0,32.876l8,12a8,8,0,1,0,13.312-8.876l-8-12a13.6,13.6,0,0,1,0-15.124,29.556,29.556,0,0,0,0-32.876,13.6,13.6,0,0,1,0-15.124Z"/><path d="M74.29,396.438a8,8,0,0,0-13.312-8.876l-8,12a29.551,29.551,0,0,0,0,32.875,13.6,13.6,0,0,1,0,15.125,29.553,29.553,0,0,0,0,32.876l8,12a8,8,0,0,0,13.312-8.876l-8-12a13.6,13.6,0,0,1,0-15.125,29.558,29.558,0,0,0,0-32.875,13.6,13.6,0,0,1,0-15.124Z"/></g></svg>
