<svg id="Capa_1" enable-background="new 0 0 512 512" height="512" viewBox="0 0 512 512" width="512" xmlns="http://www.w3.org/2000/svg"><path d="m284.01 418.305s-24.268 7.232-32.594-1.094 0-29.684 0-29.684l41.228-16.871z" fill="#f1b986"/><path d="m467.629 417.213c-4.214 4.213-12.537 4.44-19.707 3.637-6.984-.783-12.888-2.545-12.888-2.545l-10.631-44.442 13.526 4.275 29.7 9.385s8.334 21.366 0 29.69z" fill="#f1d0a5"/><path d="m447.921 420.85c-6.984-.783-12.888-2.545-12.888-2.545l-10.631-44.442 13.526 4.275 11.497 9.385c0 8.108-6.345 23.447-1.504 33.327z" fill="#f1b986"/><path d="m434.594 387.521s-49.619 40.853-75.065 15.397c-25.456 25.456-75.075-15.397-75.075-15.397h-33.042c0-92.371 37.507-122.877 44.004-127.476h128.215c6.498 4.599 44.004 35.105 44.004 127.476z" fill="#8078bc"/><g fill="#5e54ac"><path d="m285.788 370.657c2.22-20.633 8.337-32.868 8.337-32.868l3.764 49.408"/><path d="m351.803 254.142h15.453v126.141h-15.453z"/><path d="m449.426 387.521h-14.832c0-22.531-8.191-44.384-8.191-44.384s20.539 7.237 23.023 44.384z"/><path d="m312.938 260.045c-15.264 20.601-43.07 66.597-42.341 127.476h-19.185c0-92.371 37.507-122.877 44.004-127.476z"/></g><path d="m423.324 487.888-3.037 6.058-48.163-6.058s12.841-59.514-12.605-84.97c-25.446 25.456-12.605 84.97-12.605 84.97l-27.516 4.517-23.694-4.517c-16.382-41.982-11.26-100.367-11.26-100.367 0-5.779.544-11.527 1.345-16.865h147.461c.801 5.338 1.345 11.086 1.345 16.865-.001 0 5.111 58.385-11.271 100.367z" fill="#665e66"/><path d="m310.865 487.888-13.392 3.831-1.769-3.831c-16.382-41.982-11.26-100.367-11.26-100.367 0-5.779.544-11.527 1.345-16.865h24.296c-5.153 19.277-11.528 59.299.78 117.232z" fill="#454045"/><path d="m385.488 487.888h-13.365s12.841-59.514-12.605-84.97c25.97 0 39.324 44.713 25.97 84.97z" fill="#454045"/><path d="m280.355 512h66.561v-24.108h-42.454c-13.313 0-24.107 10.794-24.107 24.108z" fill="#aa593d"/><path d="m319.833 487.888c-13.313 0-24.112 10.798-24.112 24.112h-15.366c0-13.313 10.788-24.112 24.101-24.112z" fill="#934d36"/><path d="m438.693 512h-66.561v-24.108h42.454c13.314 0 24.107 10.794 24.107 24.108z" fill="#aa593d"/><path d="m473.764 181.914h.16c13.738 0 24.869-11.141 24.869-24.869 0-13.738-11.131-24.879-24.869-24.879-.179 0-.358 0-.536.009h-227.727c-.179-.009-.358-.009-.536-.009-13.738 0-24.869 11.141-24.869 24.879 0 13.728 11.131 24.869 24.869 24.869h.16" fill="#f1b986"/><path d="m359.522 0c58.49 0 101.98 27.355 108.335 67.561 5.603 44.901 7.255 89.81 4.95 134.711-1.674 32.688-27.837 58.71-60.526 60.249-17.589.83-35.178 1.248-52.76 1.248s-35.171-.418-52.76-1.248c-32.688-1.539-58.852-27.561-60.526-60.249-2.305-44.901-.652-89.81 4.95-134.711 6.357-40.206 49.847-67.561 108.337-67.561z" fill="#f1d0a5"/><path d="m328.28 263.33c-7.17-.199-14.348-.468-21.518-.808-32.688-1.539-58.852-27.561-60.526-60.249-2.305-44.901-.652-89.81 4.95-134.711 5.894-37.284 43.717-63.519 95.831-67.129-27.788 5.865-47.632 31.355-50.88 66.71-3.277 45.192-4.241 90.391-2.894 135.583.973 32.688 16.086 58.738 35.037 60.604z" fill="#f1b986"/><path d="m472.806 202.276c-1.679 32.688-27.836 58.7-60.523 60.245-17.596.824-35.181 1.247-52.756 1.247-10.415 0-20.83-.144-31.245-.443h-.093c-7.139-.196-14.288-.474-21.428-.804-32.688-1.545-58.844-27.557-60.523-60.245-.783-15.205-1.102-30.411-.979-45.627l.011-.01c17.688 0 28.824 22.88 47.594 29.669 3.276 1.185 6.778 1.885 10.59 1.885 25.682 0 27.465-20.542 56.073-20.542s30.39 20.542 56.062 20.542 37.406-31.554 58.195-31.554c.124 15.216-.195 30.432-.978 45.637z" fill="#eadfda"/><path d="m328.25 263.325h-.062c-7.139-.196-14.288-.474-21.428-.804-32.688-1.545-58.844-27.557-60.523-60.245-.783-15.205-1.102-30.411-.979-45.627l.011-.01c17.688 0 28.824 22.88 47.594 29.669.093 5.47.216 10.951.381 16.421.969 32.667 16.062 58.7 35.006 60.596z" fill="#c6beb9"/><path d="m270.854 96.178c-6.552 6.305-14.804 12.311-24.992 17.585-8.272-16.545-6.387-70.32 22.86-81.642 8.509-3.297 15.463-.505 19.471 5.903 7.54 12.043 4.758 36.85-17.339 58.154z" fill="#c6beb9"/><path d="m270.854 96.178c-1.453-19.007 2.864-45.163 17.338-58.154 7.541 12.043 4.759 36.85-17.338 58.154z" fill="#eadfda"/><path d="m473.186 113.766c8.267-16.551 6.38-70.324-22.865-81.645-29.245-11.32-39.962 49.139 22.865 81.645z" fill="#eadfda"/><path d="m306.57 132.878c-5.72 0-10.373 6.923-10.373 15.432s4.653 15.432 10.373 15.432 10.374-6.923 10.374-15.432-4.653-15.432-10.374-15.432z" fill="#454045"/><path d="m412.479 132.878c-5.72 0-10.374 6.923-10.374 15.432s4.654 15.432 10.374 15.432 10.373-6.923 10.373-15.432-4.653-15.432-10.373-15.432z" fill="#454045"/><path d="m359.522 222.387c-12.861 0-24.734-7.509-30.25-19.13-1.83-3.855-.188-8.464 3.667-10.293 3.853-1.828 8.463-.188 10.293 3.667 2.971 6.259 9.364 10.303 16.29 10.303s13.319-4.044 16.29-10.303c1.83-3.855 6.437-5.497 10.293-3.667 3.855 1.829 5.497 6.438 3.667 10.293-5.516 11.621-17.389 19.13-30.25 19.13z" fill="#c6beb9"/><path d="m67.796 418.305s-24.268 7.232-32.594-1.094 0-29.684 0-29.684l41.228-16.871z" fill="#f1b986"/><path d="m251.419 387.526s8.326 21.359 0 29.684c-8.326 8.326-32.594 1.094-32.594 1.094l-10.638-44.444z" fill="#f1d0a5"/><path d="m235.172 421.148c-8.375-.464-16.349-2.843-16.349-2.843l-10.013-41.867 24.405 11.085c-.001 9.694-5.852 24.683 1.957 33.625z" fill="#f1b986"/><path d="m218.38 387.523s5.12 58.38-11.26 100.36l-9.436 17.554-112.115-2.266-1.164-.021-4.904-15.267c-15.35-39.312-11.826-92.994-11.322-99.67.01-.113.021-.206.031-.288.021-.268.031-.402.031-.402h-33.048c0-92.376 37.509-122.88 44.009-127.475h128.216c6.49 4.595 43.999 35.098 43.999 127.475z" fill="#8bc852"/><path d="m143.307 501.247c-4.267 0-7.726-3.652-7.726-8.158v-196.463c0-4.505 3.459-8.158 7.726-8.158s7.726 3.652 7.726 8.158v196.463c.001 4.505-3.459 8.158-7.726 8.158z" fill="#6ea533"/><path d="m100.846 487.883-15.278 15.288-1.164-.021-4.904-15.267c-15.35-39.312-11.826-92.994-11.322-99.67.01-.103.021-.206.031-.288.021-.268.031-.402.031-.402h-.01c0-22.54 8.2-44.38 8.2-44.38s3.782 130.359 24.416 144.74z" fill="#6ea533"/><path d="m233.213 387.521h-14.833c0-22.531-8.191-44.384-8.191-44.384s20.54 7.237 23.024 44.384z" fill="#6ea533"/><path d="m96.724 260.045c-15.264 20.601-43.07 66.597-42.341 127.476h-19.185c0-92.371 37.507-122.877 44.004-127.476z" fill="#6ea533"/><path d="m76.749 512h66.561v-24.108h-42.454c-13.314 0-24.107 10.794-24.107 24.108z" fill="#665e66"/><path d="m116.226 487.888c-13.313 0-24.112 10.798-24.112 24.112h-15.365c0-13.313 10.788-24.112 24.101-24.112z" fill="#454045"/><path d="m209.871 512h-66.561v-24.108h42.454c13.314 0 24.107 10.794 24.107 24.108z" fill="#665e66"/><circle cx="143.557" cy="35.637" fill="#eadfda" r="35.637"/><path d="m153.649 69.826c-3.204.948-6.593 1.453-10.096 1.453-19.687 0-35.634-15.957-35.634-35.644.001-19.678 15.948-35.635 35.635-35.635 3.503 0 6.892.505 10.096 1.453-14.763 4.347-25.549 18.007-25.549 34.181 0 16.184 10.786 29.844 25.548 34.192z" fill="#c6beb9"/><path d="m250.184 140.836-106.871 70.207-79.942-52.756-26.434-17.451s-29.061-113.753 106.377-113.753h.494c135.427 0 106.376 113.753 106.376 113.753z" fill="#eadfda"/><path d="m93.833 132.409-30.462 25.878-26.434-17.451s-29.061-113.753 106.377-113.753c-74.061 18.204-49.481 105.326-49.481 105.326z" fill="#c6beb9"/><path d="m36.942 140.836h89.152v46.472h-89.657c-12.826 0-23.231-10.415-23.231-23.241s10.405-23.241 23.231-23.241c.176 0 .34 0 .505.01z" fill="#f1b986"/><path d="m273.41 164.067c0 12.826-10.395 23.241-23.231 23.241h-99.546v-46.472h99.042c.175-.01.34-.01.505-.01 12.835 0 23.23 10.415 23.23 23.241z" fill="#f1d0a5"/><ellipse cx="143.307" cy="263.766" fill="#6ea533" rx="52.411" ry="38.058"/><ellipse cx="143.307" cy="263.766" fill="#f1b986" rx="36.959" ry="22.605"/><path d="m249.313 206.222c-1.556 30.586-26.033 54.94-56.639 56.382-24.075 1.133-48.151 1.442-72.236.917-.031 0-.072 0-.103-.01-8.798-.185-17.596-.494-26.393-.907-30.596-1.442-55.074-25.796-56.639-56.382-1.123-21.799-1.236-43.587-.371-65.386h.01s25.147-1.277 56.897-8.427c28.217-6.346 61.646-17.338 87.267-36.19 0 0 26.723 44.617 68.579 44.617.875 21.799.751 43.587-.372 65.386z" fill="#f1d0a5"/><path d="m120.334 263.51c-8.798-.185-17.596-.494-26.393-.907-30.596-1.442-55.074-25.796-56.639-56.382-1.123-21.799-1.236-43.587-.371-65.386h.01s25.147-1.277 56.897-8.427v.01c-7.088 60.782.083 130 26.496 131.092z" fill="#f1b986"/><path d="m143.31 218.768c-12.209 0-23.481-7.129-28.718-18.161-1.83-3.855-.188-8.463 3.667-10.293 3.855-1.829 8.463-.187 10.293 3.667 2.692 5.67 8.484 9.334 14.758 9.334s12.066-3.664 14.757-9.334c1.829-3.855 6.439-5.498 10.293-3.668 3.855 1.829 5.497 6.438 3.668 10.293-5.236 11.033-16.508 18.162-28.718 18.162z" fill="#eaac9d"/><path d="m93.843 146.628c-5.353 0-9.708 6.475-9.708 14.433 0 7.959 4.355 14.433 9.708 14.433s9.708-6.475 9.708-14.433c-.001-7.958-4.355-14.433-9.708-14.433z" fill="#454045"/><path d="m192.779 146.628c-5.353 0-9.708 6.475-9.708 14.433 0 7.959 4.355 14.433 9.708 14.433s9.708-6.475 9.708-14.433c-.001-7.958-4.355-14.433-9.708-14.433z" fill="#454045"/><ellipse cx="209.427" cy="190.766" fill="#eaac9d" rx="15.759" ry="9.935"/><ellipse cx="77.192" cy="190.766" fill="#eaac9d" rx="15.759" ry="9.935"/><path d="m201.534 417.467h-25.681c-4.267 0-7.726-3.459-7.726-7.726s3.459-7.726 7.726-7.726h25.681c4.267 0 7.726 3.459 7.726 7.726 0 4.266-3.459 7.726-7.726 7.726z" fill="#6ea533"/><path d="m110.763 417.467h-25.681c-4.267 0-7.726-3.459-7.726-7.726s3.459-7.726 7.726-7.726h25.681c4.267 0 7.726 3.459 7.726 7.726 0 4.266-3.459 7.726-7.726 7.726z" fill="#6ea533"/></svg>