<svg height="512" viewBox="0 0 512 512" width="512" xmlns="http://www.w3.org/2000/svg"><g id="Flat"><path d="m256 336 68-68a39.59793 39.59793 0 0 0 0-56 39.59793 39.59793 0 0 0 -56 0l-12 12-12-12a39.59793 39.59793 0 0 0 -56 0 39.59793 39.59793 0 0 0 0 56z" fill="#e04446"/><path d="m219.8877 233.46436a7.6788 7.6788 0 0 0 -7.7754 0l-8.2246-13.72364a23.64209 23.64209 0 0 1 24.2246 0z" fill="#e5585a"/><path d="m218.34277 275.71533-19.02929-19.02933a23.43782 23.43782 0 0 1 -6.9043-16.686h16a7.54572 7.54572 0 0 0 2.21777 5.37207l19.03028 19.02979z" fill="#e5585a"/><path d="m398 144h23.71973a201.08324 201.08324 0 0 0 -18.75-23.6499q-5.44484-5.88026-11.31983-11.32007a201.15292 201.15292 0 0 0 -23.6499-18.75003v23.72a29.9982 29.9982 0 0 0 30 30zm-30 254v23.72a200.19871 200.19871 0 0 0 23.6499-18.76q5.87988-5.43018 11.31006-11.31006a200.15247 200.15247 0 0 0 18.75977-23.64994h-23.71973a29.9982 29.9982 0 0 0 -30 30zm-254-30h-23.72a201.13313 201.13313 0 0 0 18.75 23.6499q5.44482 5.88025 11.32007 11.32007a201.13313 201.13313 0 0 0 23.64993 18.75003v-23.72a29.998 29.998 0 0 0 -30-30zm-4.97-247.6499a201.13313 201.13313 0 0 0 -18.75 23.6499h23.72a29.998 29.998 0 0 0 30-30v-23.72a201.13313 201.13313 0 0 0 -23.6499 18.75q-5.88025 5.44485-11.3201 11.3201z" fill="#e04446"/><path d="m454.2002 229.10986c-.22022-1.71-.48047-3.40991-.75-5.10986q-1.14039-7.08-2.77-13.99a197.97372 197.97372 0 0 0 -15.04-42.01q-4.02027-8.22-8.78028-16-2.47485-4.06494-5.14013-8h-23.71979a29.9982 29.9982 0 0 1 -30-30v-23.72a199.88335 199.88335 0 0 0 -19.37988-11.58q-7.51539-3.94482-15.40039-7.23a197.78486 197.78486 0 0 0 -45.21973-12.91995 202.0554 202.0554 0 0 0 -64 0c-.60986.09985-1.22.2-1.83008.30981q-9.43506 1.59009-18.5498 4.08008a198.60262 198.60262 0 0 0 -59.62012 27.34006v23.72a29.998 29.998 0 0 1 -30 30h-23.72a199.35078 199.35078 0 0 0 -14.73 25.6499 199.64842 199.64842 0 0 0 -17 54.3501 202.0554 202.0554 0 0 0 0 64c.73 4.52 1.60986 9 2.63989 13.40991a195.79771 195.79771 0 0 0 6.14019 21.09009 199.29365 199.29365 0 0 0 22.94992 45.5h23.72a29.998 29.998 0 0 1 30 30v23.72a198.34859 198.34859 0 0 0 41.48 21.48q8.3551 3.16517 17.07007 5.57007a197.49348 197.49348 0 0 0 21.44993 4.67993 202.0554 202.0554 0 0 0 64 0 198.80642 198.80642 0 0 0 80-31.73v-23.72a29.9982 29.9982 0 0 1 30-30h23.71973a200.17776 200.17776 0 0 0 16.82027-30.1499q3.55518-7.92 6.41992-16.2002a197.40221 197.40221 0 0 0 8.49028-33.6499 201.93924 201.93924 0 0 0 .75-58.89014zm-82.52002 58.89014a120.68337 120.68337 0 1 1 4.31982-32 120.21516 120.21516 0 0 1 -4.31982 32z" fill="#e04446"/><path d="m136 256a119.80849 119.80849 0 0 0 4.32007 32h-81.77q-1.27515-7.905-1.92017-16c-.4099-5.28-.6299-10.62012-.6299-16a200.95481 200.95481 0 0 1 2.55-32h81.77a118.98328 118.98328 0 0 0 -3.26 16 120.52274 120.52274 0 0 0 -1.06 16z" fill="#d4e4f0"/><path d="m288 371.67993v81.77q-7.905 1.27515-16 1.92017c-5.28027.4099-10.62012.6299-16 .6299a200.95481 200.95481 0 0 1 -32-2.55v-81.77a118.98328 118.98328 0 0 0 16 3.26 120.87458 120.87458 0 0 0 48-3.26z" fill="#d4e4f0"/><path d="m456 256a200.984 200.984 0 0 1 -2.5498 32h-81.77a119.02171 119.02171 0 0 0 3.25976-16 120.8791 120.8791 0 0 0 -3.25976-48h81.77q1.2744 7.905 1.91992 16c.41015 5.28.62988 10.62012.62988 16z" fill="#d4e4f0"/><path d="m288 58.55005v81.77a118.99122 118.99122 0 0 0 -16-3.26 120.87458 120.87458 0 0 0 -48 3.26v-81.77q7.905-1.27515 16-1.92017c5.28-.40988 10.62012-.62988 16-.62988a200.95481 200.95481 0 0 1 32 2.55005z" fill="#d4e4f0"/><g fill="#7ab355"><path d="m80 256v16h-23.37012c-.40988-5.28-.62988-10.62012-.62988-16z"/><path d="m80 240h16v16h-16z"/><path d="m96 256h16v16h-16z"/><path d="m137.06006 240a120.52274 120.52274 0 0 0 -1.06006 16h-24v-16z"/><path d="m272 432v23.37012c-5.28027.40988-10.62012.62988-16 .62988v-24z"/><path d="m240 416h16v16h-16z"/><path d="m256 400h16v16h-16z"/><path d="m256 376v24h-16v-25.06006a120.52274 120.52274 0 0 0 16 1.06006z"/><path d="m456 256h-24v-16h23.37012c.41015 5.28.62988 10.62012.62988 16z"/><path d="m416 256h16v16h-16z"/><path d="m400 240h16v16h-16z"/><path d="m400 256v16h-25.06006a120.52274 120.52274 0 0 0 1.06006-16z"/><path d="m256 56v24h-16v-23.37012c5.28-.40988 10.62012-.62988 16-.62988z"/><path d="m256 80h16v16h-16z"/><path d="m240 96h16v16h-16z"/><path d="m272 112v25.06006a120.51993 120.51993 0 0 0 -16-1.06006v-24z"/></g><path d="m421.71973 144h-23.71973a29.9982 29.9982 0 0 1 -30-30v-23.72a201.15292 201.15292 0 0 1 23.6499 18.75q5.87988 5.44482 11.31983 11.32007a201.08324 201.08324 0 0 1 18.75 23.64993z" fill="#d6323f"/><path d="m144 90.28v23.72a29.998 29.998 0 0 1 -30 30h-23.72a201.13313 201.13313 0 0 1 18.75-23.6499q5.44482-5.88026 11.32007-11.32007a201.13313 201.13313 0 0 1 23.64993-18.75003z" fill="#d6323f"/><path d="m144 398v23.72a201.13313 201.13313 0 0 1 -23.6499-18.75q-5.88026-5.4452-11.32007-11.32007a201.13313 201.13313 0 0 1 -18.75003-23.64993h23.72a29.998 29.998 0 0 1 30 30z" fill="#d6323f"/><path d="m421.71973 368a200.15247 200.15247 0 0 1 -18.75973 23.6499q-5.43018 5.88025-11.31006 11.31006a200.19871 200.19871 0 0 1 -23.64994 18.76004v-23.72a29.9982 29.9982 0 0 1 30-30z" fill="#d6323f"/><path d="m61.18994 301.40991a195.79771 195.79771 0 0 0 6.14014 21.09009 80.56461 80.56461 0 0 1 8.04-152.8l.17993-.05a196.05933 196.05933 0 0 0 -8.37012 20.29 64.53719 64.53719 0 0 0 -5.99 111.47z" fill="#529ddf"/><path d="m202.23 38.90991 19.93994 19.94995q-9.43506 1.59009-18.5498 4.08008l-12.71023-12.70994a61.78936 61.78936 0 0 0 -44-18.23 42.90719 42.90719 0 0 0 -30.33984 73.25l9.08984 9.08984a8.00441 8.00441 0 1 1 -11.31982 11.32007l-5.31009-5.30981-3.78-3.78a58.91619 58.91619 0 0 1 41.65991-100.5701 77.74693 77.74693 0 0 1 55.32009 22.90991z" fill="#529ddf"/><path d="m448 57.93994a41.67753 41.67753 0 0 1 -12.28027 29.66016l-38.05957 38.05981a8.00459 8.00459 0 1 1 -11.32032-11.32007l38.06006-38.05984a25.93671 25.93671 0 1 0 -36.68017-36.6799l-39.09961 39.0999q-7.51539-3.94482-15.40039-7.23l43.18017-43.19a41.94562 41.94562 0 0 1 71.6001 29.65994z" fill="#529ddf"/><path d="m466.33984 343.03a24.02073 24.02073 0 0 1 0 33.93994l-33.37011 33.36987a24.02076 24.02076 0 0 1 -33.93946 0l-7.38037-7.37981-5.31006-5.3a8.00459 8.00459 0 1 1 11.32032-11.32007l5.2998 5.31006 7.37988 7.38013a8.01584 8.01584 0 0 0 11.32032 0l33.37011-33.37012a8.01566 8.01566 0 0 0 0-11.32007l-16.49027-16.48983q3.55518-7.92 6.41992-16.2002z" fill="#529ddf"/><path d="m435.64014 168q-4.02027-8.22-8.78028-16h16.85987a36.28169 36.28169 0 0 1 25.65039 61.93994l-15.16992 15.16992c-.22022-1.71-.48047-3.40991-.75-5.10986q-1.14039-7.08-2.77-13.99l7.37988-7.38013a20.28685 20.28685 0 0 0 -14.34035-34.62987z" fill="#529ddf"/><path d="m202.55005 448.77-28.89014 28.88989a53.25924 53.25924 0 0 1 -75.31982-75.32007l16-16a8.00441 8.00441 0 1 1 11.31982 11.32007l-16 16a37.25042 37.25042 0 0 0 52.68018 52.67993l23.13991-23.13982q8.35509 3.16512 17.07005 5.57z" fill="#529ddf"/></g></svg>