<?xml version="1.0"?>
<svg xmlns="http://www.w3.org/2000/svg" id="outline" viewBox="0 0 512 512" width="512" height="512"><path d="M248,480H72V320h56a7.99943,7.99943,0,0,0,6.65625-3.5625l48-72A7.99977,7.99977,0,0,0,176,232h-8a32,32,0,0,1,0-64h32a8.00039,8.00039,0,0,0,8-8V104H312v80a8.00115,8.00115,0,0,0,1.59961,4.7998l19.20019,25.59961A16.00024,16.00024,0,0,1,320,240H296v16h16v32H294.627a62.21991,62.21991,0,0,0-44.28418,18.34277l11.31446,11.31446A46.3218,46.3218,0,0,1,294.627,304H312v32h16V254.9873a32.004,32.004,0,0,0,17.60059-50.1875L328,181.333V56a40.04584,40.04584,0,0,0-40-40H147.89453C75.168,16,16,75.168,16,147.89453V168a8.01629,8.01629,0,0,0,.292,2.1416L56,313.09033V488a8.00039,8.00039,0,0,0,8,8H256a8.00039,8.00039,0,0,0,8-8V448H248ZM32,147.89453A116.026,116.026,0,0,1,147.89453,32H288a24.0275,24.0275,0,0,1,24,24V88H200a8.00039,8.00039,0,0,0-8,8v56H168a48.00205,48.00205,0,0,0-6.64258,95.542L123.71875,304H70.08105L32,166.90918Z"/><circle cx="256" cy="176" r="16"/><path d="M424,328a71.58279,71.58279,0,0,0-28.40039,5.84863L209.70215,373.2998l3.39746-16.98535a7.9997,7.9997,0,0,0-9.41406-9.41406l-23.65039,4.73047L166.65625,331.5625a7.99959,7.99959,0,0,0-13.3125,0l-13.37891,20.06836-23.65039-4.73047a7.9997,7.9997,0,0,0-9.41406,9.41406l4.73047,23.65039L91.5625,393.34375a7.99959,7.99959,0,0,0,0,13.3125l20.06836,13.37891-4.73047,23.65039a7.9997,7.9997,0,0,0,9.41406,9.41406l23.65039-4.73047,13.37891,20.06836a7.99959,7.99959,0,0,0,13.3125,0l13.37891-20.06836,23.65039,4.73047a7.9997,7.9997,0,0,0,9.41406-9.41406l-3.4707-17.35157L394.145,465.49268A71.98987,71.98987,0,1,0,424,328ZM228.4375,393.34375l-8.71826-5.812,147.10254-31.21826a71.81453,71.81453,0,0,0-.33057,86.95312l-146.37305-31.064,8.31934-5.54639a7.99959,7.99959,0,0,0,0-13.3125Zm-50.51758,38.28516a8.00173,8.00173,0,0,0-8.22558,3.40722L160,449.57715l-9.69434-14.541a8.00087,8.00087,0,0,0-8.22558-3.40722l-17.13672,3.42773,3.42773-17.13672a7.99978,7.99978,0,0,0-3.40722-8.22558L110.42285,400l14.541-9.69434a7.99978,7.99978,0,0,0,3.40722-8.22558l-3.42773-17.13672,17.13672,3.42773a7.99634,7.99634,0,0,0,8.22558-3.40722L160,350.42285l9.69434,14.541a7.9987,7.9987,0,0,0,8.22558,3.40722l17.13672-3.42773-3.42773,17.13672a7.99978,7.99978,0,0,0,3.40722,8.22558L209.57715,400l-14.541,9.69434a7.99978,7.99978,0,0,0-3.40722,8.22558l3.42773,17.13672Zm288.99024,4.30273-3.75489-7.50976a8.00005,8.00005,0,0,0-14.31054,7.15624l5.67041,11.34131a55.83745,55.83745,0,0,1-59.2461,1.126l5.76123-5.76123a8.00052,8.00052,0,0,0-11.31445-11.31445l-6.91309,6.91308a55.964,55.964,0,0,1,77.12891-80.793l-7.50976,3.75489a8.00005,8.00005,0,1,0,7.15624,14.31054l11.34131-5.67041a55.83956,55.83956,0,0,1-4.00927,66.44678Z"/><path d="M413.65723,402.34277a8.003,8.003,0,0,0-11.31446,0l-8,8a8.00053,8.00053,0,0,0,11.31446,11.31446l8-8A8.00122,8.00122,0,0,0,413.65723,402.34277Z"/><path d="M418.34277,389.65723a8.00053,8.00053,0,0,0,11.31446-11.31446l-8-8a8.00053,8.00053,0,0,0-11.31446,11.31446Z"/><path d="M395.57715,399.15527a7.99944,7.99944,0,0,0,3.57812-10.73242l-4.62695-9.25488a7.99962,7.99962,0,1,0-14.31055,7.1543l4.627,9.25488a7.99279,7.99279,0,0,0,10.73242,3.57812Z"/><path d="M437.7793,404.167l-9.35645,4.67774a7.99962,7.99962,0,1,0,7.1543,14.31054l9.35644-4.67773A7.99962,7.99962,0,0,0,437.7793,404.167Z"/><path d="M432,432h-8a8,8,0,0,0,0,16h8a8,8,0,0,0,0-16Z"/><path d="M469.65723,394.34277l-8-8a8.00053,8.00053,0,0,0-11.31446,11.31446l8,8a8.00053,8.00053,0,0,0,11.31446-11.31446Z"/></svg>
